<svg width="30" height="25" viewBox="0 0 30 25" fill="none" xmlns="http://www.w3.org/2000/svg">
<path d="M12.234 23.5178L28.5026 7.76767C29.1663 7.12422 29.1663 6.07965 28.5026 5.43597L24.4183 1.48175C24.0966 1.1705 23.6714 1 23.2163 1C22.7616 1 22.3328 1.17049 22.0114 1.48175L11.0323 12.1131L7.98972 9.16942C7.66986 8.85884 7.24204 8.68632 6.78748 8.68632C6.33269 8.68632 5.90443 8.85885 5.58225 9.17055L1.49707 13.1243C0.834789 13.7669 0.834789 14.8123 1.49707 15.4545L9.82727 23.5172C10.4924 24.1609 11.5722 24.161 12.234 23.5178ZM3.18443 14.2892L6.78783 10.8008C7.60924 11.5967 10.3089 14.2097 10.3089 14.2097L11.0328 14.9095L11.7537 14.2097L23.2163 3.11367L26.8206 6.6026L11.0327 21.8874L3.18443 14.2892Z" fill="#345CEB"/>
<path fill-rule="evenodd" clip-rule="evenodd" d="M28.5026 7.76767L12.234 23.5178C11.5722 24.161 10.4924 24.1609 9.82727 23.5172L1.49707 15.4545C0.834789 14.8123 0.834789 13.7669 1.49707 13.1243L5.58225 9.17055C5.90443 8.85885 6.33269 8.68632 6.78748 8.68632C7.24204 8.68632 7.66986 8.85884 7.98972 9.16942L11.0323 12.1131L22.0114 1.48175C22.3328 1.17049 22.7616 1 23.2163 1C23.6714 1 24.0966 1.1705 24.4183 1.48175L28.5026 5.43597C29.1663 6.07965 29.1663 7.12422 28.5026 7.76767ZM11.0322 11.9739L21.9418 1.40991C22.2824 1.08011 22.7363 0.9 23.2163 0.9C23.6969 0.9 24.1472 1.08026 24.4879 1.40988L28.5721 5.36413C29.2763 6.04709 29.2764 7.15672 28.5722 7.83947L12.3037 23.5895C11.603 24.2706 10.4615 24.2701 9.75773 23.589L1.42752 15.5263C0.724706 14.8449 0.724682 13.7344 1.42744 13.0525L5.51271 9.09869C5.85376 8.76873 6.30705 8.58632 6.78748 8.58632C7.26763 8.58632 7.72056 8.76869 8.05938 9.09768L11.0322 11.9739ZM10.2393 14.2816L10.3089 14.2097L11.0328 14.9095L11.7537 14.2097L23.2163 3.11367L26.8206 6.6026L11.0327 21.8874L3.18443 14.2892L6.78783 10.8008C6.78783 10.8008 6.78784 10.8008 6.78783 10.8008C7.60924 11.5967 10.3089 14.2097 10.3089 14.2097L10.2393 14.2816L8.78683 12.8756C8.05068 12.1629 7.22248 11.3611 6.78781 10.94L3.3282 14.2892L11.0327 21.7482L26.6769 6.60261L23.2163 3.25285L11.8233 14.2815L11.0329 15.0487L10.2393 14.2816Z" fill="#345CEB"/>
</svg>
