<svg width="16" height="15" viewBox="0 0 16 15" fill="none" xmlns="http://www.w3.org/2000/svg">
<path d="M5.5 5L8 1L10.5 5L15 6L12 9.5V14L8 12L3.5 14L4 9.5L1 6L5.5 5Z" fill="#345CEB"/>
<path d="M12.41 14.9987C12.649 15.006 12.8797 14.911 13.0416 14.7384C13.2035 14.5657 13.2809 14.3327 13.2538 14.0996L12.7324 9.71437L15.7824 6.46717C15.9151 6.326 15.9917 6.1432 15.9994 5.95143C16.0069 5.75985 15.9447 5.57182 15.8238 5.42093C15.7029 5.27024 15.5313 5.1666 15.3395 5.12851L10.9243 4.2576L8.71803 0.411778C8.62195 0.244471 8.46829 0.116189 8.2846 0.0497154C8.1009 -0.0165718 7.89911 -0.0165718 7.7154 0.0497154C7.53171 0.116189 7.37805 0.244471 7.28197 0.411778L5.07569 4.2576L0.660484 5.12851C0.468703 5.1666 0.297138 5.27023 0.176216 5.42093C0.0552943 5.5718 -0.0068992 5.75983 0.000608182 5.95143C0.00831028 6.1432 0.0851367 6.32582 0.217805 6.46698L3.26783 9.71418L2.74641 14.0995C2.72407 14.2899 2.77125 14.4822 2.88004 14.6415C2.98883 14.801 3.15192 14.9171 3.34004 14.9694C3.52817 15.0217 3.72919 15.0066 3.90711 14.9268L8 13.0848L12.0929 14.9268C12.1926 14.9713 12.3005 14.9957 12.41 14.9987ZM11.4484 12.8586L8.34334 11.4636C8.12537 11.3655 7.87467 11.3657 7.65668 11.4637L4.55159 12.8588L4.94729 9.53187C4.97482 9.29846 4.89741 9.06505 4.73509 8.89213L2.42136 6.42827L5.77006 5.7706C6.00516 5.7243 6.20811 5.57996 6.32559 5.37512L8.00004 2.45398L9.67449 5.37493C9.79194 5.57977 9.99489 5.72429 10.23 5.7706L13.5787 6.42826L11.265 8.89194C11.1027 9.06466 11.0253 9.29844 11.0528 9.53167L11.4484 12.8586Z" fill="#345CEB"/>
</svg>
