<svg width="28" height="31" viewBox="0 0 28 31" fill="none" xmlns="http://www.w3.org/2000/svg">
<path d="M27.9013 18.4116L25.1997 14.0826V12.3999C25.1997 5.4467 20.2068 0 13.8323 0C12.8479 0 11.8654 0.135625 10.9045 0.390268C10.1135 0.136906 9.27228 0 8.39997 0C3.76788 0 0 3.85112 0 8.58457C0 10.7196 0.771037 12.671 2.03813 14.1741C2.31063 15.7884 2.92228 17.2136 3.76815 18.8185L3.89127 19.0534C4.52167 20.2536 6.44043 23.9069 6.53334 25.7537V30.046C6.53334 30.5727 6.95084 30.9998 7.46667 30.9998C7.9825 30.9998 8.4 30.5727 8.4 30.046L8.39917 25.7051C8.29521 23.6229 6.7148 20.3966 5.53544 18.1512L5.4142 17.9183C5.10503 17.3315 4.84172 16.7793 4.60839 16.2344C5.74859 16.8271 7.03462 17.169 8.40005 17.169C9.97317 17.169 11.4917 16.7238 12.8225 15.8767L15.4878 17.0871C15.6096 17.142 15.7382 17.169 15.8667 17.169C16.1092 17.169 16.348 17.0722 16.5267 16.8895C16.8 16.6106 16.8767 16.1886 16.7198 15.8277L15.5359 13.1039C16.3644 11.7436 16.8001 10.1922 16.8001 8.58447C16.8001 5.89518 15.5823 3.49396 13.6819 1.91849C13.7321 1.91806 13.7821 1.90784 13.8323 1.90784C19.1598 1.90784 23.3331 6.51631 23.3331 12.4001V14.3078C23.3331 14.456 23.3669 14.6022 23.4317 14.7344L25.8454 18.4116L24.2664 19.077C23.7506 19.077 23.3331 19.5041 23.3331 20.0308V23.503C23.3331 23.8928 23.2421 24.8 22.3998 24.8H18.6664C18.1506 24.8 17.7331 25.2271 17.7331 25.7539V30.0462C17.7331 30.5729 18.1506 31 18.6664 31C19.1823 31 19.5998 30.5729 19.5998 30.0462V26.7077H22.3998C24.0485 26.7077 25.1998 25.3896 25.1998 23.503V20.9847L27.0583 20.0308C27.3818 20.0308 27.6899 19.621 27.8604 19.3401C28.0308 19.0589 28.0461 18.7074 27.9013 18.4116ZM14.9328 8.58462C14.9328 9.97772 14.5118 11.3167 13.7143 12.4573C13.522 12.7326 13.4864 13.0907 13.6203 13.3994L14.0287 14.3368L13.1108 13.9202C12.808 13.7822 12.4572 13.8186 12.1893 14.0162C11.0728 14.8308 9.76223 15.2615 8.39951 15.2615C4.79745 15.2615 1.86621 12.2663 1.86621 8.58463C1.86621 4.90297 4.79745 1.90775 8.39951 1.90775C12.0016 1.90775 14.9328 4.90296 14.9328 8.58462ZM9.33287 8.58462C9.33287 9.11137 8.91537 9.53847 8.39954 9.53847C7.88371 9.53847 7.46621 9.11137 7.46621 8.58462C7.46621 8.05788 7.88371 7.63078 8.39954 7.63078C8.91537 7.63078 9.33287 8.05788 9.33287 8.58462ZM12.1329 8.58462C12.1329 9.11137 11.7154 9.53847 11.1995 9.53847C10.6837 9.53847 10.2662 9.11137 10.2662 8.58462C10.2662 8.05788 10.6837 7.63078 11.1995 7.63078C11.7154 7.63078 12.1329 8.05788 12.1329 8.58462ZM6.53288 8.58462C6.53288 9.11137 6.11538 9.53847 5.59955 9.53847C5.08372 9.53847 4.66622 9.11137 4.66622 8.58462C4.66622 8.05788 5.08372 7.63078 5.59955 7.63078C6.11538 7.63078 6.53288 8.05788 6.53288 8.58462Z" fill="#345CEB"/>
</svg>
