<svg width="24" height="24" viewBox="0 0 24 24" fill="none" xmlns="http://www.w3.org/2000/svg">
<path d="M2.4 0C1.76348 0 1.15303 0.252856 0.702944 0.702944C0.252856 1.15303 0 1.76348 0 2.4V16.8C0 17.4365 0.252856 18.047 0.702944 18.4971C1.15303 18.9471 1.76348 19.2 2.4 19.2H7.2V22.8C7.2 23.1183 7.32643 23.4235 7.55147 23.6485C7.77652 23.8736 8.08174 24 8.4 24H9C9.3 24 9.6 23.88 9.84 23.652L14.28 19.2H21.6C22.2365 19.2 22.847 18.9471 23.2971 18.4971C23.7471 18.047 24 17.4365 24 16.8V2.4C24 1.76348 23.7471 1.15303 23.2971 0.702944C22.847 0.252856 22.2365 0 21.6 0H2.4ZM2 2H22V17H13.368L9 21.5V17H2V2ZM12.228 4.2C11.16 4.2 10.308 4.416 9.66 4.848C9 5.28 8.664 6 8.724 6.828H11.088C11.088 6.492 11.208 6.24 11.4 6.072C11.64 5.904 11.904 5.82 12.228 5.82C12.6 5.82 12.924 5.916 13.14 6.132C13.356 6.336 13.464 6.6 13.464 6.96C13.464 7.296 13.368 7.596 13.2 7.848C12.996 8.112 12.744 8.328 12.432 8.496C11.808 8.88 11.4 9.216 11.148 9.504C10.92 9.792 10.8 10.2 10.8 10.8H13.2C13.2 10.464 13.26 10.2 13.368 9.984C13.476 9.78 13.68 9.6 13.992 9.42C14.544 9.168 15 8.832 15.348 8.4C15.696 7.956 15.876 7.488 15.876 6.96C15.876 6.12 15.552 5.448 14.904 4.944C14.256 4.452 13.356 4.2 12.228 4.2ZM10.8 12V14.4H13.2V12H10.8Z" fill="#345CEB"/>
</svg>
