<svg width="18" height="18" viewBox="0 0 18 18" fill="none" xmlns="http://www.w3.org/2000/svg">
<path d="M2.25 8C1.69772 8 1.25 8.44772 1.25 9C1.25 9.55228 1.69772 10 2.25 10V8ZM16.4571 9.70711C16.8476 9.31658 16.8476 8.68342 16.4571 8.29289L10.0931 1.92893C9.70262 1.53841 9.06946 1.53841 8.67893 1.92893C8.28841 2.31946 8.28841 2.95262 8.67893 3.34315L14.3358 9L8.67893 14.6569C8.28841 15.0474 8.28841 15.6805 8.67893 16.0711C9.06946 16.4616 9.70262 16.4616 10.0931 16.0711L16.4571 9.70711ZM2.25 10H15.75V8H2.25V10Z" fill="white"/>
</svg>
