<svg width="24" height="24" viewBox="0 0 24 24" fill="none" xmlns="http://www.w3.org/2000/svg">
<path d="M0 6.75289C0 3.78081 2.24699 1.2871 5.21154 1.07554C7.30672 0.926026 9.67515 0.796509 11.593 0.796509C13.5109 0.796509 15.8793 0.926026 17.9745 1.07554C20.939 1.2871 23.186 3.7808 23.186 6.75289V12.3895V18.0261C23.186 20.9982 20.939 23.4919 17.9745 23.7035C15.8793 23.853 13.5109 23.9825 11.593 23.9825C9.67515 23.9825 7.30673 23.853 5.21154 23.7035C2.24699 23.4919 0 20.9982 0 18.0261V12.3895V6.75289Z" fill="white"/>
<path d="M17.2546 5.05237L19.8184 4.48255L19.2485 7.04628C19.6238 7.7482 19.8196 8.53207 19.8184 9.328C19.8184 12.0042 17.649 14.1735 14.9729 14.1735C12.2967 14.1735 10.1274 12.0042 10.1274 9.328C10.1274 6.65186 12.2967 4.48255 14.9729 4.48255C15.7688 4.48135 16.5527 4.67711 17.2546 5.05237Z" fill="#00CFCF"/>
<path d="M13.6689 6.79202H16.2774V7.80641H15.6253V10.8496H16.2774V11.864H13.6689V10.8496H14.3211V7.80641H13.6689V6.79202Z" fill="white"/>
<path d="M6.27673 19.906L3.18482 20.5932L3.87204 17.5013C3.41946 16.6548 3.18338 15.7094 3.18482 14.7495C3.18482 11.522 5.80105 8.90582 9.02853 8.90582C12.256 8.90582 14.8722 11.522 14.8722 14.7495C14.8722 17.977 12.256 20.5932 9.02853 20.5932C8.06862 20.5947 7.12326 20.3586 6.27673 19.906Z" fill="#345CEB"/>
<path d="M10.3324 16.3852C10.3324 16.9533 10.199 17.3706 9.9324 17.6373C9.66576 17.9039 9.25421 18.0372 8.69775 18.0372C8.14708 18.0372 7.56163 18.0082 6.94141 17.9503V16.7765C7.39353 16.8055 7.85725 16.82 8.33257 16.82C8.46589 16.82 8.57022 16.7823 8.64558 16.7069C8.72673 16.6258 8.76731 16.5185 8.76731 16.3852V13.0812H7.63699V11.864H10.3324V16.3852Z" fill="white"/>
</svg>
