<svg width="16" height="16" viewBox="0 0 16 16" fill="none" xmlns="http://www.w3.org/2000/svg">
<path d="M9.28729 7.07624L9.29344 1.4515C9.29342 1.20489 9.19545 0.968383 9.02106 0.793996C8.84667 0.619609 8.61016 0.52163 8.36356 0.521612C8.11696 0.521595 7.88046 0.61954 7.7061 0.793903C7.53174 0.968264 7.43379 1.20476 7.43381 1.45136L7.44076 7.07611L1.81601 7.06916C1.56941 7.06914 1.33291 7.16709 1.15855 7.34145C0.984189 7.51581 0.886243 7.75231 0.886261 7.99891C0.886278 8.24551 0.984258 8.48202 1.15864 8.65641C1.33303 8.8308 1.56954 8.92878 1.81614 8.92879L7.44089 8.92265L7.43474 14.5474C7.43425 14.6696 7.45796 14.7908 7.50452 14.9038C7.55108 15.0169 7.61956 15.1196 7.706 15.206C7.79245 15.2925 7.89516 15.3609 8.0082 15.4075C8.12124 15.454 8.24238 15.4778 8.36462 15.4773C8.48687 15.4778 8.608 15.4541 8.72103 15.4075C8.83407 15.361 8.93676 15.2925 9.0232 15.2061C9.10964 15.1197 9.1781 15.017 9.22464 14.9039C9.27118 14.7909 9.29488 14.6698 9.29437 14.5475L9.28743 8.92278L14.9122 8.92972C15.0344 8.93023 15.1555 8.90654 15.2686 8.85999C15.3816 8.81345 15.4843 8.74499 15.5707 8.65855C15.6572 8.57212 15.7256 8.46942 15.7722 8.35639C15.8187 8.24335 15.8424 8.12222 15.8419 7.99997C15.8424 7.87773 15.8187 7.75659 15.7721 7.64355C15.7256 7.53051 15.6571 7.4278 15.5707 7.34136C15.4842 7.25491 15.3815 7.18643 15.2685 7.13987C15.1554 7.09331 15.0343 7.0696 14.912 7.07009L9.28729 7.07624Z" fill="white"/>
</svg>
