<svg width="18" height="18" viewBox="0 0 18 18" fill="none" xmlns="http://www.w3.org/2000/svg">
<path d="M3.70051 4.66245C4.66652 3.48249 6.0007 2.65604 7.49346 2.31861L7.51411 2.40994L7.49347 2.31861C9.08135 1.95981 10.7452 2.17772 12.1872 2.93346C13.6291 3.68917 14.7549 4.93346 15.3632 6.44349C15.9715 7.95361 16.0226 9.63073 15.5072 11.175C14.992 12.7192 13.9439 14.0297 12.5507 14.8716C11.1574 15.7137 9.50978 16.0325 7.90314 15.7708C6.2965 15.5091 4.83529 14.6842 3.78118 13.4437C2.73282 12.2099 2.14955 11.096 2.15078 9.46041M2.15078 9.46041C2.15078 9.46044 2.15078 9.46046 2.15078 9.46049H2.25078L2.15078 9.46041Z" fill="white" stroke="white" stroke-width="0.2"/>
</svg>
